{"title":"Gorgeous Busty Asian Teen Serves Client (Censored)[VPSR].avi","uid":10759258,"size":523926303,"categoryP":"porn","categoryS":"other","magnet":"?xt=urn:btih:b0c78afc55c7b310b28bbb37d72e6b216f76b85c&amp;dn=Gorgeous+Busty+Asian+Teen+Serves+Client+%28Censored%29%5BVPSR%5D.avi&amp;tr=udp%3A%2F%2Ftracker.openbittorrent.com%3A80&amp;tr=udp%3A%2F%2Fopen.demonii.com%3A1337&amp;tr=udp%3A%2F%2Ftracker.coppersurfer.tk%3A6969&amp;tr=udp%3A%2F%2Fexodus.desync.com%3A6969","seeders":1,"leechers":4,"uploader":"vpsr","files":1,"time":1407959418,"description":"Gorgeous Busty Asian Teen Serves Client (Censored)[VPSR].avi\n\n &lt;a href=&quot;\nhttp://s25.postimg.org/shkx6fan3/gor.jpg&quot; rel=&quot;nofollow&quot; target=&quot;_NEW&quot;&gt;\nhttp://s25.postimg.org/shkx6fan3/gor.jpg&lt;/a&gt;\n\n &lt;a href=&quot;\nhttp://s25.postimg.org/mhx62rpun/Gorgeous_Busty_Asian_Teen_Serves_Client_Censore.jpg&quot; rel=&quot;nofollow&quot; target=&quot;_NEW&quot;&gt;\nhttp://s25.postimg.org/mhx62rpun/Gorgeous_Busty_Asian_Teen_Serves_Client_Censore.jpg&lt;/a&gt;\n\nFILE INFO\n\nGeneral\nComplete name                            : Gorgeous Busty Asian Teen Serves Client (Censored)[VPSR].avi\nFormat                                   : MPEG-4\nFormat profile                           : Base Media / Version 2\nCodec ID                                 : mp42\nFile size                                : 500 MiB\nDuration                                 : 56mn 42s\nOverall bit rate mode                    : Variable\nOverall bit rate                         : 1 232 Kbps\n\nVideo\nID                                       : 1\nFormat                                   : AVC\nFormat/Info                              : Advanced Video Codec\nFormat profile                           : &lt;a class=&quot;__cf_email__&quot; href=&quot;/cdn-cgi/l/email-protection&quot; data-cfemail=&quot;f3b19280969f9a9d96b3bfc0ddc3&quot;&gt;[email&amp;#160;protected]&lt;/a&gt;&lt;script cf-hash='f9e31' type=&quot;text/javascript&quot;&gt;\n/* &lt;![CDATA[ */!function(){try{var t=&quot;currentScript&quot;in document?document.currentScript:function(){for(var t=document.getElementsByTagName(&quot;script&quot;),e=t.length;e--;)if(t[e].getAttribute(&quot;cf-hash&quot;))return t[e]}();if(t&amp;&amp;t.previousSibling){var e,r,n,i,c=t.previousSibling,a=c.getAttribute(&quot;data-cfemail&quot;);if(a){for(e=&quot;&quot;,r=parseInt(a.substr(0,2),16),n=2;a.length-n;n+=2)i=parseInt(a.substr(n,2),16)^r,e+=String.fromCharCode(i);e=document.createTextNode(e),c.parentNode.replaceChild(e,c)}}}catch(u){}}();/* ]]&gt; */&lt;/script&gt;\nFormat settings, CABAC                   : No\nFormat settings, ReFrames                : 1 frame\nFormat settings, GOP                     : M=1, N=33\nCodec ID                                 : avc1\nCodec ID/Info                            : Advanced Video Coding\nDuration                                 : 56mn 42s\nBit rate mode                            : Constant\nBit rate                                 : 1 100 Kbps\nWidth                                    : 720 pixels\nHeight                                   : 396 pixels\nDisplay aspect ratio                     : 16:9\nFrame rate mode                          : Variable\nFrame rate                               : 30.000 fps\nMinimum frame rate                       : 30.000 fps\nMaximum frame rate                       : 30.010 fps\nStandard                                 : NTSC\nColor space                              : YUV\nChroma subsampling                       : 4:2:0\nBit depth                                : 8 bits\nScan type                                : Progressive\nBits/(Pixel*Frame)                       : 0.129\nStream size                              : 446 MiB (89%)\nLanguage                                 : English\n\nAudio\nID                                       : 2\nFormat                                   : AAC\nFormat/Info                              : Advanced Audio Codec\nFormat profile                           : LC\nCodec ID                                 : 40\nDuration                                 : 56mn 42s\nSource duration                          : 56mn 42s\nBit rate mode                            : Variable\nBit rate                                 : 128 Kbps\nChannel(s)                               : 2 channels\nChannel positions                        : Front: L R\nSampling rate                            : 44.1 KHz\nCompression mode                         : Lossy\nStream size                              : 51.7 MiB (10%)\nSource stream size                       : 51.7 MiB (10%)\nLanguage                                 : English\nmdhd_Duration                            : 3402588\n\n","torrent":{"xt":"urn:btih:b0c78afc55c7b310b28bbb37d72e6b216f76b85c","amp;dn":"Gorgeous+Busty+Asian+Teen+Serves+Client+%28Censored%29%5BVPSR%5D.avi","amp;tr":["udp%3A%2F%2Ftracker.openbittorrent.com%3A80","udp%3A%2F%2Fopen.demonii.com%3A1337","udp%3A%2F%2Ftracker.coppersurfer.tk%3A6969","udp%3A%2F%2Fexodus.desync.com%3A6969"],"infoHash":"b0c78afc55c7b310b28bbb37d72e6b216f76b85c","infoHashBuffer":{"type":"Buffer","data":[176,199,138,252,85,199,179,16,178,139,187,55,215,46,107,33,111,118,184,92]},"announce":[],"urlList":[]}}